<svg xmlns="http://www.w3.org/2000/svg" width="256" height="256"><path fill-opacity=".016" d="M0 128.004v128.004l128.25-.254 128.25-.254.254-127.75L257.008 0H0v128.004m.485.496c0 70.4.119 99.053.265 63.672.146-35.38.146-92.98 0-128C.604 29.153.485 58.1.485 128.5" fill="#1976D2" fill-rule="evenodd"/><path fill-opacity=".207" d="M123 71.239v56.238l-16.482-16.459-16.482-16.459-4.038 3.943-4.038 3.943 23.262 23.277L128.484 149l22.758-22.742C163.759 113.75 174 103.038 174 102.454c0-.584-1.585-2.598-3.522-4.475l-3.521-3.413-16.479 16.456L134 127.477V15h-11v56.239m-97.252 35.966L0 148.41v92.598l128.25-.254 128.25-.254.26-46.227c.224-39.863.054-46.471-1.238-48-.823-.975-12.457-19.323-25.853-40.773l-24.356-39H143.5l-.302 5.25-.303 5.25h55.667l22.029 35.25 22.03 35.25-34.215.263-34.215.263-.345 13.903c-.338 13.582-.415 14.003-3.359 18.237-1.761 2.532-4.863 5.27-7.462 6.584-4.323 2.186-5.31 2.25-34.787 2.25-32.959 0-33.322-.054-39.574-5.864-4.695-4.363-5.141-5.989-5.664-20.636l-.5-14-34.278-.5-34.278-.5 21.855-35 21.855-35 27.673-.266L113 76.968V66H51.495l-25.747 41.205M.462 194.5c-.001 25.85.129 36.568.287 23.819.158-12.75.158-33.9 0-47C.591 158.218.462 168.65.462 194.5" fill="#1976D2" fill-rule="evenodd"/><path fill-opacity=".322" d="M123 71.739v56.739l-16.783-16.761-16.782-16.761-3.218 3.32c-1.769 1.825-3.217 3.752-3.217 4.28 0 .528 10.125 11.078 22.5 23.444l22.5 22.484 22.983-22.967 22.983-22.967-3.704-3.793-3.704-3.794-16.779 16.758L133 128.478V15h-10v56.739m-97.318 36.357L0 149.192v91.816l128.25-.254 128.25-.254.26-46.927c.143-25.809-.033-46.633-.391-46.275-.358.358-11.966-17.45-25.794-39.573L205.432 67.5l-30.716-.264L144 66.971v9.997l27.657.266 27.658.266 21.842 34.954C233.171 131.679 243 147.767 243 148.204c0 .438-15.491.796-34.424.796h-34.425l-.325 13.828c-.299 12.686-.525 14.118-2.736 17.34-2.843 4.144-7.467 7.506-12.185 8.859-4.914 1.41-55.926 1.248-61.656-.195-5.794-1.458-12.639-7.971-14.168-13.481-.589-2.118-1.072-8.913-1.075-15.101L82 149H47.417c-19.021 0-34.434-.379-34.25-.843.183-.464 10.231-16.664 22.328-36L57.491 77H113V67H51.365l-25.683 41.096M.462 194.5c-.001 25.85.129 36.568.287 23.819.158-12.75.158-33.9 0-47C.591 158.218.462 168.65.462 194.5" fill="#1976D2" fill-rule="evenodd"/><path fill-opacity=".155" d="M124 71.5c0 31.075-.333 56.5-.739 56.5-.406 0-8.047-7.298-16.978-16.217l-16.24-16.217-3.545 3.436-3.545 3.435 22.766 22.782L128.484 148l22.754-22.738 22.753-22.737-3.498-3.499-3.498-3.498-16.259 16.236c-8.942 8.93-16.591 16.236-16.997 16.236-.406 0-.739-25.425-.739-56.5V15h-9v56.5m-98.25 36.94L0 149.796v91.212l128.25-.254 128.25-.254.26-45.882c.215-37.837.02-46.079-1.107-47-.753-.615-12.512-19.005-26.131-40.868L204.759 67H144l-.001 4.75v4.75l27.41-.281 27.41-.28 22.59 36.114C233.834 131.916 244 148.355 244 148.584c0 .229-15.525.416-34.5.416H175v11.134c0 6.124-.514 12.848-1.141 14.944-1.566 5.226-6.014 10.334-11.174 12.832-4.087 1.979-5.907 2.089-34.251 2.068-33.698-.025-34.954-.251-41.26-7.432-4.723-5.38-5.174-7.22-5.174-21.111V149H47.393c-31.862 0-34.556-.132-33.969-1.663.839-2.186 41.451-67.317 43.391-69.587 1.355-1.586 4.01-1.75 28.34-1.75H112v-9l-30.25.042-30.25.043-25.75 41.355M.461 195c0 25.575.13 36.038.288 23.25.158-12.787.158-33.712 0-46.5C.591 158.963.461 169.425.461 195" fill="#1976D2" fill-rule="evenodd"/></svg>